<svg xmlns="http://www.w3.org/2000/svg" version="1.1" xmlns:xlink="http://www.w3.org/1999/xlink" xmlns:svgjs="http://svgjs.dev/svgjs" width="100%" height="100%" viewBox="0 0 1000 600"><rect width="1000" height="600" x="0" y="0" fill="#73c2fb"/><g><rect width="333.3333333333333" height="333.3333333333333" rx="13.333333333333334" ry="13.333333333333334" y="193.40775060105864" fill="#f7f7f9" transform="matrix(0.7302019613482619,0,0,0.7302019613482617,0,37.07295849726384)" x="171.18556213378906"/><path d="M338.58808202389724 435.07443165342215L338.58808202389724 435.07443165342215Q320.92744316117313 435.07443165342215 308.46110984630906 428.32183444120415Q295.994776531445 421.56923722898614 287.25102885921393 409.73776348108265L287.25102885921393 409.73776348108265L300.150220969733 398.94515084275133Q307.8262502793484 409.10290391412195 317.17600026549644 414.41263847415667Q326.52575025164447 419.7223730341914 339.1940843378142 419.7223730341914L339.1940843378142 419.7223730341914Q354.77700098139434 419.7223730341914 363.00131809883936 412.219487242838Q371.1967779632408 404.74545870452835 371.1967779632408 392.2791253896643L371.1967779632408 392.2791253896643Q371.1967779632408 381.8905142939442 364.96361130580874 376.2922072034728Q358.7304446483767 370.6650428599578 344.38838988567426 367.3464587599361L344.38838988567426 367.3464587599361L332.5569161377709 364.66273422687505Q312.6165542845971 360.0744309929321 302.11251417670235 350.8401100189586Q291.6373313218513 341.57693179194166 291.6373313218513 324.75315326748387L291.6373313218513 324.75315326748387Q291.6373313218513 315.2014025100301 295.15791619317866 307.7273739717204Q298.678501064506 300.2533454334107 305.0270967341127 295.2610406568563Q311.3756924037194 290.26873588030196 320.2060118350815 287.67158310637194Q329.0363312664435 285.0744303324419 339.62694313346924 285.0744303324419L339.62694313346924 285.0744303324419Q356.0467201153157 285.0744303324419 367.76276485104444 291.1055962185683Q379.5076668398168 297.13676210469464 387.61655494508716 308.7662350812924L387.61655494508716 308.7662350812924L374.51536206326244 318.31798583874615Q368.51305343017975 310.00709696217007 359.9713065292544 305.2167929569214Q351.45841688137267 300.45534620471636 338.7900827952029 300.45534620471636L338.7900827952029 300.45534620471636Q324.8808868281555 300.45534620471636 316.8585704820161 306.37108307866805Q308.8651113889204 312.2868199526198 308.8651113889204 324.1471509535669L308.8651113889204 324.1471509535669Q308.8651113889204 334.53576204928686 315.6177086011384 339.81663935627796Q322.3703058133565 345.1263739163127 336.0775010090982 348.2429572450286L336.0775010090982 348.2429572450286L347.93783201004527 350.9266817780897Q369.3210565154024 355.7169857833384 378.90166452589983 365.47073731209775Q388.45341528335354 375.25334609390086 388.45341528335354 391.44226505139795L388.45341528335354 391.44226505139795Q388.45341528335354 401.4268746045067 385.0194021711572 409.53576270977703Q381.5853890589608 417.6446508150474 375.1502216302231 423.2429579055188Q368.71505420148543 428.8412649959902 359.45187597446835 431.9578483247061Q350.217555000495 435.07443165342215 338.58808202389724 435.07443165342215Z " fill="#73c2fb" transform="matrix(0.7302019613482619,0,0,0.7302019613482617,0,37.07295849726384)"/><path d="M639.1892783129597 435.07443165342215L639.1892783129597 435.07443165342215Q621.5286394502356 435.07443165342215 609.0623061353715 428.32183444120415Q596.5959728205074 421.56923722898614 587.8522251482764 409.73776348108265L587.8522251482764 409.73776348108265L600.7514172587954 398.94515084275133Q608.4274465684108 409.10290391412195 617.7771965545589 414.41263847415667Q627.126946540707 419.7223730341914 639.7952806268767 419.7223730341914L639.7952806268767 419.7223730341914Q655.3781972704568 419.7223730341914 663.6025143879018 412.219487242838Q671.7979742523032 404.74545870452835 671.7979742523032 392.2791253896643L671.7979742523032 392.2791253896643Q671.7979742523032 381.8905142939442 665.5648075948711 376.2922072034728Q659.331640937439 370.6650428599578 644.9895861747367 367.3464587599361L644.9895861747367 367.3464587599361L633.1581124268332 364.66273422687505Q613.2177505736595 360.0744309929321 602.7137104657647 350.8401100189586Q592.2385276109137 341.57693179194166 592.2385276109137 324.75315326748387L592.2385276109137 324.75315326748387Q592.2385276109137 315.2014025100301 595.7591124822411 307.7273739717204Q599.2796973535685 300.2533454334107 605.628293023175 295.2610406568563Q611.9768886927818 290.26873588030196 620.8072081241439 287.67158310637194Q629.6375275555059 285.0744303324419 640.2281394225317 285.0744303324419L640.2281394225317 285.0744303324419Q656.6479164043781 285.0744303324419 668.3639611401068 291.1055962185683Q680.1088631288792 297.13676210469464 688.2177512341497 308.7662350812924L688.2177512341497 308.7662350812924L675.1165583523249 318.31798583874615Q669.1142497192423 310.00709696217007 660.5725028183167 305.2167929569214Q652.0596131704351 300.45534620471636 639.3912790842653 300.45534620471636L639.3912790842653 300.45534620471636Q625.4820831172178 300.45534620471636 617.4597667710785 306.37108307866805Q609.4663076779827 312.2868199526198 609.4663076779827 324.1471509535669L609.4663076779827 324.1471509535669Q609.4663076779827 334.53576204928686 616.2189048902009 339.81663935627796Q622.971502102419 345.1263739163127 636.6786972981606 348.2429572450286L636.6786972981606 348.2429572450286L648.5390282991077 350.9266817780897Q669.9222528044648 355.7169857833384 679.5028608149623 365.47073731209775Q689.0546115724159 375.25334609390086 689.0546115724159 391.44226505139795L689.0546115724159 391.44226505139795Q689.0546115724159 401.4268746045067 685.6205984602196 409.53576270977703Q682.1865853480233 417.6446508150474 675.7514179192856 423.2429579055188Q669.3162504905479 428.8412649959902 660.0530722635308 431.9578483247061Q650.8187512895574 435.07443165342215 639.1892783129597 435.07443165342215ZM757.4174440328628 435.07443165342215L757.4174440328628 435.07443165342215Q746.1919725988763 435.07443165342215 737.2462241553395 431.1498452394835Q728.3293329648465 427.19640157250114 722.1827380665455 419.9243738054971Q716.0650004212881 412.6523460384931 712.8329880803975 402.263734942773Q709.6298329925504 391.8751238470529 709.6298329925504 378.9759317365339L709.6298329925504 378.9759317365339Q709.6298329925504 366.10559687905845 712.8329880803975 355.7169857833384Q716.0650004212881 345.3283746876183 722.1827380665455 338.05634692061426Q728.3293329648465 330.7843191536102 737.2462241553395 326.83087548662786Q746.1919725988763 322.8774318196455 757.4174440328628 322.8774318196455L757.4174440328628 322.8774318196455Q773.4043622190542 322.8774318196455 783.0715419886825 329.86088705621285Q792.7387217583108 336.8154850397366 797.5001685105159 348.040956473723L797.5001685105159 348.040956473723L783.5909725434684 355.0821262163777Q780.6763899860581 346.7712373398017 774.0392217860148 342.21179135890225Q767.3731963329277 337.6523453780029 757.4174440328628 337.6523453780029L757.4174440328628 337.6523453780029Q749.9145582415093 337.6523453780029 744.316251151038 340.0186401275836Q738.7179440605665 342.413792130208 734.96650116489 346.68466558067064Q731.2150582692133 350.9266817780897 729.3681940744185 356.8712759050851Q727.4924726265803 362.7870127790368 727.4924726265803 369.8570397747351L727.4924726265803 369.8570397747351L727.4924726265803 388.1236809513763Q727.4924726265803 402.263734942773 735.0819301770645 411.29605514544073Q742.6425304745052 420.32837534810847 757.4174440328628 420.32837534810847L757.4174440328628 420.32837534810847Q777.5598066573422 420.32837534810847 786.505555100879 401.6288753758123L786.505555100879 401.6288753758123L798.539029620088 409.73776348108265Q793.3447240722279 421.3672364576804 783.0715419886825 428.2352626820731Q772.7695026520934 435.07443165342215 757.4174440328628 435.07443165342215ZM861.3035549900634 435.07443165342215L861.3035549900634 435.07443165342215Q850.4820850986883 435.07443165342215 841.5651939081953 431.1498452394835Q832.6194454646585 427.19640157250114 826.2708497950517 419.80894479332244Q819.9511113784887 412.45034526718734 816.4016692541178 402.1483059305983Q812.8810843827904 391.8751238470529 812.8810843827904 378.9759317365339L812.8810843827904 378.9759317365339Q812.8810843827904 366.3075976503641 816.4016692541178 355.918986554644Q819.9511113784887 345.5303754589239 826.2708497950517 338.17177593278893Q832.6194454646585 330.7843191536102 841.5651939081953 326.83087548662786Q850.4820850986883 322.8774318196455 861.3035549900634 322.8774318196455L861.3035549900634 322.8774318196455Q872.0961676283947 322.8774318196455 880.9264870597568 326.83087548662786Q889.7568064911189 330.7843191536102 896.1919739198567 338.17177593278893Q902.6271413485941 345.5303754589239 906.1765834729653 355.918986554644Q909.6971683442927 366.3075976503641 909.6971683442927 378.9759317365339L909.6971683442927 378.9759317365339Q909.6971683442927 391.8751238470529 906.1765834729653 402.1483059305983Q902.6271413485941 412.45034526718734 896.1919739198567 419.80894479332244Q889.7568064911189 427.19640157250114 880.9264870597568 431.1498452394835Q872.0961676283947 435.07443165342215 861.3035549900634 435.07443165342215ZM861.3035549900634 420.32837534810847L861.3035549900634 420.32837534810847Q874.8087494144994 420.32837534810847 883.3216390623812 412.0174864715324Q891.8345287102628 403.7065975949563 891.8345287102628 386.6808182991929L891.8345287102628 386.6808182991929L891.8345287102628 371.2999024269185Q891.8345287102628 354.27412313115497 883.3216390623812 345.963234254579Q874.8087494144994 337.6523453780029 861.3035549900634 337.6523453780029L861.3035549900634 337.6523453780029Q847.7983605656271 337.6523453780029 839.2566136647018 345.963234254579Q830.7437240168202 354.27412313115497 830.7437240168202 371.2999024269185L830.7437240168202 371.2999024269185L830.7437240168202 386.6808182991929Q830.7437240168202 403.7065975949563 839.2566136647018 412.0174864715324Q847.7983605656271 420.32837534810847 861.3035549900634 420.32837534810847ZM977.6559992621279 435.07443165342215L977.6559992621279 435.07443165342215Q966.8345293707529 435.07443165342215 957.9176381802598 431.1498452394835Q948.9718897367233 427.19640157250114 942.6232940671165 419.80894479332244Q936.3035556505534 412.45034526718734 932.7541135261826 402.1483059305983Q929.2335286548551 391.8751238470529 929.2335286548551 378.9759317365339L929.2335286548551 378.9759317365339Q929.2335286548551 366.3075976503641 932.7541135261826 355.918986554644Q936.3035556505534 345.5303754589239 942.6232940671165 338.17177593278893Q948.9718897367233 330.7843191536102 957.9176381802598 326.83087548662786Q966.8345293707529 322.8774318196455 977.6559992621279 322.8774318196455L977.6559992621279 322.8774318196455Q988.4486119004595 322.8774318196455 997.2789313318216 326.83087548662786Q1006.1092507631835 330.7843191536102 1012.5444181919212 338.17177593278893Q1018.9795856206589 345.5303754589239 1022.52902774503 355.918986554644Q1026.0496126163575 366.3075976503641 1026.0496126163575 378.9759317365339L1026.0496126163575 378.9759317365339Q1026.0496126163575 391.8751238470529 1022.52902774503 402.1483059305983Q1018.9795856206589 412.45034526718734 1012.5444181919212 419.80894479332244Q1006.1092507631835 427.19640157250114 997.2789313318216 431.1498452394835Q988.4486119004595 435.07443165342215 977.6559992621279 435.07443165342215ZM977.6559992621279 420.32837534810847L977.6559992621279 420.32837534810847Q991.1611936865642 420.32837534810847 999.6740833344458 412.0174864715324Q1008.1869729823276 403.7065975949563 1008.1869729823276 386.6808182991929L1008.1869729823276 386.6808182991929L1008.1869729823276 371.2999024269185Q1008.1869729823276 354.27412313115497 999.6740833344458 345.963234254579Q991.1611936865642 337.6523453780029 977.6559992621279 337.6523453780029L977.6559992621279 337.6523453780029Q964.1508048376919 337.6523453780029 955.6090579367666 345.963234254579Q947.0961682888848 354.27412313115497 947.0961682888848 371.2999024269185L947.0961682888848 371.2999024269185L947.0961682888848 386.6808182991929Q947.0961682888848 403.7065975949563 955.6090579367666 412.0174864715324Q964.1508048376919 420.32837534810847 977.6559992621279 420.32837534810847ZM1097.9330299481312 432.5927078916668L1077.1558077566915 432.5927078916668Q1068.4409173375038 432.5927078916668 1063.9680431157353 427.7158321272872Q1059.4951688939673 422.8389563629074 1059.4951688939673 414.9320690289427L1059.4951688939673 414.9320690289427L1059.4951688939673 339.93206836845263L1041.834530031243 339.93206836845263L1041.834530031243 325.38801283444457L1051.819139584352 325.38801283444457Q1057.2154459035173 325.38801283444457 1059.2065963635305 323.1948616031258Q1061.1688895704997 321.03056762485085 1061.1688895704997 315.60540405264146L1061.1688895704997 315.60540405264146L1061.1688895704997 295.6650421994676L1076.1169466471192 295.6650421994676L1076.1169466471192 325.38801283444457L1099.606750624664 325.38801283444457L1099.606750624664 339.93206836845263L1076.1169466471192 339.93206836845263L1076.1169466471192 418.04865235765874L1097.9330299481312 418.04865235765874L1097.9330299481312 432.5927078916668ZM1158.6198330989628 435.07443165342215L1158.6198330989628 435.07443165342215Q1143.6429187692997 435.07443165342215 1133.57173745706 429.3606955507761Q1123.5005561448202 423.64695944813013 1116.228528377816 414.0952086906764L1116.228528377816 414.0952086906764L1128.0600021257196 404.5434579332226Q1134.2931687831515 412.45034526718734 1141.9980553458108 416.6923614646064Q1149.6740846554262 420.96323491506905 1159.8606949798404 420.96323491506905L1159.8606949798404 420.96323491506905Q1170.451306846866 420.96323491506905 1176.367043720818 416.3749316811261Q1182.311637847813 411.81548570022665 1182.311637847813 403.5045968236507L1182.311637847813 403.5045968236507Q1182.311637847813 397.2714301662186 1178.2427651686562 392.7985559444503Q1174.202749742543 388.3256817226819 1163.612137875517 386.6808182991929L1163.612137875517 386.6808182991929L1155.0703909745916 385.4399564183152Q1147.596362436282 384.40109530874315 1141.3631957788502 382.2079440774245Q1135.130029121418 380.0147928461058 1130.455154128344 376.37877896260386Q1125.7802791352697 372.7427650791018 1123.1831263613399 367.3464587599361Q1120.5859735874096 361.95015244077035 1120.5859735874096 354.4761239024607L1120.5859735874096 354.4761239024607Q1120.5859735874096 346.56923656849597 1123.5005561448202 340.6534996945443Q1126.4151387022307 334.7377628205926 1131.4940152379158 330.7843191536102Q1136.601749026645 326.83087548662786 1143.6429187692997 324.86858227965854Q1150.712945764998 322.8774318196455 1158.8218338702682 322.8774318196455L1158.8218338702682 322.8774318196455Q1171.923026752093 322.8774318196455 1180.753346183455 327.46573505358856Q1189.5836656148172 332.0251810344879 1196.2208338148607 340.13406913975825L1196.2208338148607 340.13406913975825L1185.19736315218 350.118678692867Q1181.6767782808524 345.1263739163127 1174.80875205646 341.05750123715563Q1167.969583085111 337.0174858110422 1157.5809719893905 337.0174858110422L1157.5809719893905 337.0174858110422Q1147.1923608936704 337.0174858110422 1141.882626333636 341.4903600328106Q1136.601749026645 345.963234254579 1136.601749026645 353.6392635641944L1136.601749026645 353.6392635641944Q1136.601749026645 361.5461508981591 1141.882626333636 365.0667357694864Q1147.1923608936704 368.5873206408138 1157.1481131937358 370.26104131734644L1157.1481131937358 370.26104131734644L1165.4590020703117 371.5019031982241Q1183.3504989573853 374.2144849843288 1190.8245274956948 381.80394253481313Q1198.2985560340048 389.36454283225385 1198.2985560340048 401.6288753758123L1198.2985560340048 401.6288753758123Q1198.2985560340048 417.2117920193924 1187.707944166979 426.1575404629291Q1177.117332299953 435.07443165342215 1158.6198330989628 435.07443165342215Z " fill="#f7f7f9" transform="matrix(0.7302019613482619,0,0,0.7302019613482617,0,37.07295849726384)"/></g></svg>